<?xml version="1.0" encoding="UTF-8" standalone="no"?>
<!-- Created with Inkscape (http://www.inkscape.org/) -->

<svg
   version="1.1"
   id="svg9"
   width="414.07123"
   height="548.90149"
   viewBox="0 0 414.07123 548.90149"
   sodipodi:docname="dark-logo.svg"
   inkscape:version="1.2.2 (732a01da63, 2022-12-09)"
   xmlns:inkscape="http://www.inkscape.org/namespaces/inkscape"
   xmlns:sodipodi="http://sodipodi.sourceforge.net/DTD/sodipodi-0.dtd"
   xmlns="http://www.w3.org/2000/svg"
   xmlns:svg="http://www.w3.org/2000/svg">
  <defs
     id="defs13" />
  <sodipodi:namedview
     id="namedview11"
     pagecolor="#ffffff"
     bordercolor="#000000"
     borderopacity="0.25"
     inkscape:showpageshadow="2"
     inkscape:pageopacity="0.0"
     inkscape:pagecheckerboard="true"
     inkscape:deskcolor="#d1d1d1"
     showgrid="false"
     inkscape:zoom="1.7954545"
     inkscape:cx="-78.253165"
     inkscape:cy="275.41772"
     inkscape:window-width="2182"
     inkscape:window-height="1368"
     inkscape:window-x="781"
     inkscape:window-y="0"
     inkscape:window-maximized="0"
     inkscape:current-layer="g15" />
  <g
     inkscape:groupmode="layer"
     inkscape:label="Image"
     id="g15"
     transform="translate(-14.636866,-15.199763)">
    <path
       style="fill:#000000"
       d="m 192.3353,563.2935 c -4.95075,-1.50595 -8.85231,-4.08274 -12.32554,-8.14043 -3.68616,-4.30645 -3.32007,-3.28635 -18.81387,-52.42523 -10.1744,-32.26828 -10.97031,-34.48463 -13.43612,-37.41509 -4.38904,-5.21607 -7.76009,-6.08491 -23.60903,-6.08491 -15.99119,0 -22.55009,-1.21491 -32.385195,-5.99873 -15.66201,-7.61805 -26.31487,-20.88774 -30.87665,-38.46137 -1.20163,-4.62911 -1.55055,-11.77522 -1.56244,-32 -0.008,-14.32194 -0.34592,-26.53416 -0.75,-27.13825 -0.40408,-0.60408 -5.17557,-1.38304 -10.60331,-1.731 -7.28175,-0.46681 -11.23638,-1.25883 -15.08648,-3.02147 -13.59257,-6.22288 -21.18568,-22.05336 -17.18267,-35.82324 1.27712,-4.39314 19.53322,-37.57903 28.78536,-52.32594 4.25997,-6.78993 10.87993,-21.48512 12.40351,-27.53367 1.12921,-4.48291 1.88414,-14.13458 2.46123,-31.46633 1.02662,-30.83267 2.89327,-42.62414 10.13155,-64 C 89.809955,79.706685 142.21915,32.824372 204.06062,19.344644 c 29.93085,-6.524095 64.28386,-5.296071 93.0965,3.327938 77.62675,23.234722 131.38277,95.381228 131.55051,176.555258 0.0453,21.92157 -3.28375,40.00075 -12.37784,67.22086 -6.286,18.81502 -7.52282,23.67687 -10.51192,41.3216 -7.55992,44.6264 -2.04516,104.87392 14.58272,159.31288 2.34755,7.68576 2.40483,10.22037 0.38474,17.02275 -1.69679,5.71372 -6.94268,12.29441 -11.80509,14.80886 -1.65651,0.85662 -12.94032,4.6999 -25.07515,8.54063 -12.13483,3.84074 -28.36332,8.99186 -36.06332,11.44694 -7.7,2.45508 -16.7,5.276 -20,6.26872 -3.3,0.99272 -19.05,5.95318 -35,11.02325 -15.95,5.07007 -38,12.04998 -49,15.51093 -11,3.46094 -24.44284,7.69436 -29.87299,9.4076 -9.67886,3.05373 -16.50216,3.74152 -21.63348,2.18064 z m 28.67079,-23.67706 c 11.45963,-3.63627 29.38568,-9.29606 39.83568,-12.57731 22.55928,-7.08352 31.59566,-9.93597 66,-20.83376 27.30421,-8.64878 42.5085,-13.43825 61.37012,-19.33207 6.25357,-1.9541 12.21607,-4.31847 13.25,-5.25417 2.5834,-2.33794 2.3673,-6.15588 -1.01263,-17.89129 -10.42699,-36.20332 -16.10388,-76.24407 -16.09177,-113.5 0.0112,-34.42271 4.0426,-58.0064 15.95349,-93.32777 7.95758,-23.59793 9.5235,-33.21876 9.46836,-58.17223 -0.0521,-23.5833 -1.31512,-31.79118 -7.99754,-51.97318 C 385.48232,97.527543 343.85345,56.492063 294.84177,41.339 c -20.84718,-6.445374 -27.98905,-7.491611 -51,-7.47116 -18.92707,0.01682 -22.13517,0.27432 -32.5,2.608619 -35.64326,8.027343 -62.32506,22.853333 -87.09037,48.392564 -17.89008,18.449167 -29.997145,38.475407 -38.304175,63.358817 -5.82101,17.43664 -7.68132,30.15661 -8.62879,59 -1.12923,34.37614 -2.35905,38.82038 -18.63392,67.33757 -4.75929,8.33933 -12.40839,21.5136 -16.998,29.27614 -9.00606,15.2322 -10.06226,19.1643 -6.82782,25.41902 2.36441,4.57226 6.16424,5.96727 16.2541,5.96727 7.71432,0 9.56692,0.35839 14.2153,2.75 3.37498,1.73644 6.48176,4.35169 8.42932,7.09571 l 3.08435,4.34572 0.55095,30.15428 c 0.59097,32.34498 0.77191,33.55719 6.45696,43.25799 2.5994,4.43554 9.90425,11.05062 15.19251,13.75793 6.089025,3.11727 15.445655,4.60841 29.012075,4.62359 10.91662,0.0122 14.18032,0.37689 18.78231,2.09872 11.125,4.1624 18.49177,12.14206 22.24552,24.09631 22.95293,73.09625 23.37604,74.34919 25.85718,76.56975 1.38271,1.2375 3.12538,2.25 3.87259,2.25 0.74721,0 10.73461,-2.97513 22.19423,-6.6114 z m -3.20977,-177.84315 c -1.6252,-1.6252 -2.44866,-3.56801 -2.43712,-5.75 0.01,-1.8125 1.76587,-17.47045 3.90284,-34.79545 2.13698,-17.325 3.67758,-31.8375 3.42355,-32.25 -0.25402,-0.4125 -18.00678,-0.75 -39.45059,-0.75 h -38.98873 l -2.45225,-2.64602 c -3.90473,-4.21328 -3.30595,-8.22487 2.24866,-15.06507 30.10946,-37.07812 93.71917,-112.15928 95.84234,-113.12666 3.81825,-1.73971 9.03196,0.11562 10.99558,3.91284 1.68768,3.26362 1.6365,3.88538 -3.60321,43.77181 -1.61459,12.29079 -2.93562,23.42829 -2.93562,24.75 v 2.4031 l 36.75,0.006 c 22.66328,0.003 38.20446,0.40947 40.54445,1.05927 4.8161,1.33741 7.71258,6.448 6.07849,10.72498 -0.95702,2.50485 -88.1043,108.01928 -96.18767,116.46017 -4.50773,4.7071 -9.81806,5.20812 -13.73072,1.29545 z m 50.52591,-73.58818 c 16.51075,-19.8235 30.01977,-36.361 30.02006,-36.75 2.8e-4,-0.389 -14.28722,-0.5702 -31.75,-0.40267 -35.61537,0.34167 -38.15632,0.021 -40.59727,-5.12289 -1.44911,-3.05378 -1.38171,-4.8917 0.88908,-24.243 1.35139,-11.51629 2.6468,-21.75191 2.87869,-22.74581 0.23188,-0.99391 0.009,-1.66891 -0.49607,-1.5 -0.50472,0.1689 -14.41548,16.5071 -30.9128,36.3071 l -29.99513,36 34.57914,0.5 34.57915,0.5 2.41234,2.80576 c 3.03694,3.53221 3.03254,4.98084 -0.0876,28.89113 -2.63908,20.22308 -2.78543,21.80311 -2.01959,21.80311 0.26426,0 13.98926,-16.21923 30.5,-36.04273 z"
       id="path187" />
    <path
       style="fill:#000000;stroke-width:0.556962"
       d="m 180.6056,548.24001 c -1.75553,-0.23382 -4.6378,-1.10586 -6.40506,-1.93786 -4.24083,-1.99654 -9.69433,-7.25812 -11.52054,-11.11512 -1.61611,-3.41328 -5.75164,-15.89846 -16.77045,-50.63007 -9.82076,-30.95533 -10.27374,-32.12376 -13.85001,-35.72486 -4.17416,-4.20314 -5.90125,-4.58313 -23.73043,-5.2211 -16.192074,-0.57941 -19.662688,-1.10968 -26.917325,-4.11275 -9.589026,-3.96939 -17.748157,-9.93057 -23.537516,-17.19687 -4.186573,-5.25461 -9.083737,-14.77479 -10.807636,-21.01024 -1.518866,-5.49384 -2.191593,-17.02061 -2.213733,-37.93096 -0.01976,-18.66216 -0.316807,-23.11683 -1.57365,-23.59913 -0.46579,-0.17874 -3.37645,-0.58619 -6.468134,-0.90544 -16.3849,-1.69193 -20.338877,-3.13783 -27.117432,-9.91638 -7.79464,-7.79464 -11.0100132,-18.18779 -8.5526507,-27.645 1.2650688,-4.86864 12.8662237,-26.55822 26.0546667,-48.71195 6.586279,-11.06352 11.633856,-21.45336 14.253874,-29.33991 1.938143,-5.83403 2.559001,-11.5512 3.376274,-31.09047 1.351112,-32.30223 2.699038,-42.75673 7.603041,-58.96912 C 58.96083,111.5885 68.541741,92.320616 81.235,75.251635 99.483148,50.712841 123.61081,30.802354 150.80425,17.842113 177.15511,5.2834398 204.93444,-0.46944287 234.75949,0.45564033 264.16987,1.3678616 287.87573,7.3987259 313.56691,20.504566 c 36.23107,18.482547 66.42832,50.107859 83.32697,87.267584 11.36387,24.98888 16.65042,49.43004 16.65042,76.97936 0,22.68759 -2.48022,36.05272 -12.53597,67.55229 -5.6621,17.73651 -6.92145,22.54386 -9.11895,34.81012 -3.63088,20.26723 -4.89555,39.66009 -3.98179,61.05835 1.47636,34.57313 6.34678,64.58482 15.91022,98.03944 1.67719,5.86708 3.20165,11.778 3.3877,13.13537 0.42849,3.12621 -1.38861,10.5745 -3.42931,14.05668 -1.894,3.23188 -5.9336,7.72082 -8.21906,9.13332 -3.45557,2.13566 -14.70683,5.83165 -87.27866,28.67064 -17.00126,5.35045 -49.20759,15.50706 -71.56962,22.57025 -48.06492,15.18161 -48.9629,15.41309 -56.10326,14.46204 z m 11.65319,-19.15796 c 15.30939,-4.612 180.37189,-56.73324 186.47138,-58.88145 3.85473,-1.35761 7.38785,-2.98101 8.35443,-3.83867 1.55144,-1.37662 1.66951,-1.74793 1.60193,-5.03754 -0.0478,-2.32628 -1.05294,-7.19327 -2.91376,-14.10876 -11.64469,-43.27587 -16.27251,-78.84983 -15.50218,-119.165 0.57963,-30.33549 3.92869,-49.65524 14.04786,-81.03797 9.92345,-30.7758 10.36674,-33.19664 10.70855,-58.48101 0.3633,-26.87495 -0.65367,-35.34425 -6.3835,-53.16116 -3.53805,-11.00154 -6.30183,-17.75027 -11.00058,-26.86176 -15.73148,-30.505357 -41.90485,-56.674292 -72.32887,-72.316613 -9.71388,-4.994331 -18.05271,-8.293953 -29.41285,-11.638472 -17.5193,-5.15783 -23.53038,-5.896591 -47.94254,-5.892134 -20.32565,0.0037 -23.6775,0.347522 -37.19917,3.815656 -32.09623,8.232269 -54.34797,20.6982 -77.62637,43.488056 -20.078723,19.657334 -32.482874,39.206327 -41.546741,65.477817 -6.186288,17.93088 -7.723598,28.11639 -9.198138,60.94268 -1.689361,37.60858 -1.765765,37.83485 -28.038083,83.032 -13.966082,24.02632 -15.885171,27.94621 -15.907291,32.49188 -0.02865,5.88673 3.152413,10.2241 8.397977,11.45064 1.472979,0.34442 6.34197,0.82354 10.819981,1.06473 7.566268,0.4075 8.393106,0.56291 11.696203,2.19829 4.533437,2.24454 7.292053,4.54872 10.239819,8.55296 l 2.350541,3.19299 0.389595,23.01793 c 0.617053,36.45639 1.095634,40.59845 5.627054,48.70138 2.478782,4.43248 8.297676,10.45165 13.112,13.5633 7.268962,4.69816 13.615349,5.99956 32.544213,6.67356 9.88558,0.35199 14.16494,0.72187 16.43038,1.42009 9.22405,2.84293 17.05708,9.3731 21.08505,17.57801 1.49339,3.04198 6.0295,16.49903 12.84937,38.11956 12.70009,40.26206 13.82366,43.36836 16.56982,45.81012 1.25777,1.11836 2.62651,1.81013 3.58153,1.81013 0.85015,0 4.50523,-0.89156 8.12239,-1.98124 z"
       id="path263"
       transform="translate(14.636866,15.199763)" />
    <path
       style="fill:#000000;stroke-width:0.556962"
       d="m 180.47052,548.22314 c -4.57712,-0.60811 -8.85148,-2.83281 -12.92128,-6.72523 -5.18674,-4.9607 -5.14659,-4.85717 -19.71082,-50.81437 -11.33156,-35.75651 -12.19336,-38.1026 -15.19118,-41.35485 -4.24851,-4.60909 -6.31653,-5.08862 -24.59661,-5.70344 -15.423529,-0.51874 -19.417359,-1.13766 -26.643373,-4.12887 -9.58433,-3.96745 -17.744676,-9.93002 -23.532988,-17.195 -4.186573,-5.25461 -9.083737,-14.77479 -10.807636,-21.01024 -1.518866,-5.49384 -2.191593,-17.02061 -2.213733,-37.93096 -0.01976,-18.66216 -0.316807,-23.11683 -1.57365,-23.59913 -0.46579,-0.17874 -3.37645,-0.58619 -6.468134,-0.90544 -10.942878,-1.12997 -15.381126,-2.02557 -19.092553,-3.8527 -4.181102,-2.05835 -9.902305,-7.19444 -12.4682274,-11.19308 -4.2481409,-6.62015 -5.91492928,-15.46601 -4.1842939,-22.20658 1.3218122,-5.14827 13.4095783,-27.78752 26.7685063,-50.1349 6.94697,-11.62118 12.60074,-23.73034 14.519906,-31.09852 1.162919,-4.46474 1.818636,-12.48682 2.768456,-33.86941 1.228771,-27.66241 2.581014,-37.55476 7.248597,-53.02719 C 65.161438,91.076263 90.539374,56.199802 126.1519,32.078116 159.19416,9.6973611 195.15401,-0.77280246 234.75949,0.45564033 263.44903,1.3455031 286.79643,7.1526188 311.6862,19.589348 c 43.42051,21.69603 76.26095,59.350478 92.18233,105.695142 6.67607,19.433 9.66075,37.75136 9.67041,59.35184 0.0103,22.98902 -2.54638,36.69019 -12.793,68.55759 -2.42285,7.53514 -5.03373,16.18198 -5.80198,19.21519 -12.34916,48.7575 -8.64103,114.96118 9.94846,177.61621 2.65373,8.94427 2.85925,11.25993 1.47079,16.57171 -1.30043,4.97501 -3.03664,8.18161 -6.53933,12.07744 -3.16884,3.52452 -4.93087,4.58861 -11.5896,6.99897 -10.59742,3.83611 -190.5861,60.59602 -195.8039,61.74729 -5.03796,1.11158 -8.09099,1.31641 -11.95986,0.80241 z m 31.17505,-25.16651 c 70.61755,-22.16686 165.89502,-52.35199 169.15386,-53.59012 4.95952,-1.88426 7.22767,-3.49046 7.79089,-5.51714 0.57915,-2.08404 -0.29588,-7.64511 -2.36623,-15.03798 -10.38192,-37.07212 -15.23766,-69.65722 -15.93541,-106.93671 -0.69415,-37.08772 2.54915,-59.28355 13.75399,-94.12658 10.69059,-33.2439 11.40742,-37.69317 10.97303,-68.10829 -0.33382,-23.37337 -1.0192,-27.93414 -6.9169,-46.02773 C 377.14256,100.09938 356.96575,72.115248 327.99478,50.351113 312.45016,38.673379 295.31684,30.246698 275.0074,24.290323 257.6423,19.197465 251.15888,18.483765 225.01266,18.786855 207.47468,18.990158 204.96022,19.136162 199.94937,20.242174 169.67113,26.92529 148.45252,36.605476 126.70886,53.655385 119.61911,59.214688 102.3799,76.630177 97.122487,83.544304 85.780868,98.459875 78.033833,112.90683 71.885278,130.60759 65.483173,149.03829 63.85207,159.65447 62.386631,192.43038 60.706015,230.01889 60.788272,229.77531 34.36272,275.41102 20.245695,299.79046 18.459021,303.45292 18.464715,308 c 0.0075,5.97808 3.26466,10.25399 8.680731,11.39578 1.611777,0.33979 6.439364,0.81038 10.727972,1.04574 6.770497,0.37159 8.232474,0.62777 11.100328,1.94504 4.185426,1.92248 7.532881,4.66284 10.508462,8.60265 l 2.340577,3.09903 0.63165,27.61411 c 0.64342,28.12851 1.118798,34.18496 3.098558,39.47634 2.765545,7.39159 10.598175,16.02922 18.218312,20.0907 6.437634,3.43123 16.774295,5.05702 32.355275,5.08897 9.2673,0.019 13.85896,0.9284 20.01829,3.96472 6.49672,3.20264 11.80879,8.51829 14.9903,15.0004 1.46374,2.98227 5.67802,15.39572 11.52319,33.94234 14.36235,45.57148 15.23569,47.98141 18.28207,50.44842 1.4568,1.17974 2.15479,1.36631 4.24944,1.13585 1.37848,-0.15166 13.28355,-3.65872 26.4557,-7.79346 z"
       id="path265"
       transform="translate(14.636866,15.199763)" />
    <path
       style="fill:#a0a0a0;stroke:none;stroke-width:0.556962"
       d="m 180.4557,548.23876 c -8.08929,-1.09507 -15.79532,-7.58898 -19.09099,-16.08805 -1.00384,-2.58875 -6.58076,-19.66184 -12.39317,-37.94017 -12.45695,-39.17347 -13.23332,-41.31226 -16.23309,-44.72019 -4.17232,-4.74 -6.21862,-5.22569 -24.68782,-5.85963 -15.420688,-0.5293 -19.441893,-1.15328 -26.643373,-4.13434 -16.307948,-6.7507 -27.950487,-19.08905 -33.43818,-35.4366 -2.364118,-7.04258 -2.669007,-10.77802 -3.05467,-37.4252 -0.316081,-21.83946 -0.490591,-25.5887 -1.225223,-26.32334 -0.601142,-0.60114 -3.340451,-1.11078 -9.184307,-1.70872 C 20.84249,337.20459 16.844181,335.74407 10.508139,329.83688 4.4309143,324.17098 1.0684358,317.34327 0.46244301,309.43849 0.00732277,303.50175 1.169215,299.56509 6.2270978,289.90704 11.377023,280.07323 21.905832,261.31667 27.154381,252.62609 c 7.928183,-13.12752 14.463976,-27.67816 15.752078,-35.06885 0.750975,-4.30884 1.438717,-14.60495 2.51545,-37.65851 0.991545,-21.22962 2.59081,-31.89086 7.003048,-46.68468 C 65.725056,88.620083 93.313123,52.517097 133.25764,27.432759 172.45542,2.8173619 220.82442,-5.4701824 268.4557,4.2679275 c 26.11535,5.3392269 54.06311,18.6747605 76.17948,36.3497485 34.99986,27.971234 59.46528,69.814684 66.61906,113.939284 1.99808,12.32417 2.43815,19.35449 2.13715,34.14182 -0.44197,21.71252 -2.6172,32.99789 -12.10126,62.7829 -5.95716,18.70865 -7.1915,23.38684 -9.40158,35.63224 -2.31614,12.83299 -3.36939,22.67121 -3.94257,36.8269 -1.46457,36.16974 3.86445,79.13452 14.56778,117.45159 4.97857,17.82285 5.00043,17.92324 4.63762,21.29365 -0.67616,6.28143 -3.05192,11.43387 -7.45407,16.16602 -3.18374,3.4224 -4.89301,4.44311 -11.36141,6.78458 -6.72374,2.43389 -108.54305,34.72818 -184.20932,58.42614 -13.01178,4.07516 -17.96306,4.94865 -23.67088,4.17596 z m 8.85134,-18.33139 c 9.27196,-2.70731 168.9772,-52.99744 184.136,-57.98321 11.21334,-3.68811 13.77585,-4.97774 14.81032,-7.45357 1.07328,-2.56872 0.46648,-6.25471 -3.38656,-20.57186 -9.49085,-35.26611 -13.9086,-66.15322 -14.57812,-101.92405 -0.72293,-38.6256 2.44063,-59.24234 15.11267,-98.48821 8.99861,-27.86911 9.48473,-30.88551 9.48473,-58.85356 0,-27.58291 -0.68335,-32.50962 -7.22821,-52.11329 -8.43614,-25.26856 -21.46141,-46.369647 -40.33343,-65.340665 -22.55418,-22.672487 -48.80531,-37.339363 -80.82569,-45.158452 -11.86559,-2.89747 -14.17028,-3.083794 -38.14432,-3.083794 -24.49845,0 -23.69446,-0.0811 -39.08182,3.94211 -32.18068,8.414018 -56.0716,22.393478 -79.60921,46.582277 -17.974563,18.471846 -29.564898,37.379714 -38.157769,62.248604 -6.01157,17.39827 -7.658529,28.44972 -9.131994,61.27764 -1.656723,36.91072 -1.710375,37.06841 -28.140578,82.70886 -12.626304,21.80348 -14.173363,24.74043 -15.289599,29.02595 -1.285106,4.93386 0.207195,9.97515 3.752157,12.67553 2.486053,1.89376 5.482867,2.50184 14.89932,3.02321 7.056401,0.3907 8.492919,0.63877 11.378809,1.96496 4.25865,1.95703 7.669153,4.77772 10.614736,8.77901 l 2.355704,3.2 0.381613,22.18466 c 0.433701,25.21298 1.090031,37.013 2.321736,41.74182 1.71385,6.57991 6.69641,13.69675 13.238179,18.90874 8.66003,6.89966 14.388207,8.34189 36.291506,9.13741 9.369,0.34028 13.633,0.71869 15.87341,1.40869 9.21844,2.83907 17.05331,9.36954 21.08823,17.5773 1.42906,2.90698 5.29274,14.16307 10.12133,29.48665 10.39529,32.98947 15.43395,48.17218 17.05795,51.39982 1.35348,2.68999 4.01115,4.84738 5.97624,4.85126 0.57963,0.001 2.83533,-0.51808 5.01266,-1.15384 z"
       id="path342"
       transform="translate(14.636866,15.199763)" />
    <path
       style="fill:#ffffff;stroke:none;stroke-width:0.556962"
       d="m 206.00862,348.16569 c -1.88068,-0.85001 -4.33493,-3.77988 -4.80765,-5.73937 -0.34569,-1.43296 -0.016,-4.74134 2.98676,-29.97062 3.25841,-27.37739 4.33408,-38.36326 3.81123,-38.92435 -0.2545,-0.27311 -17.84554,-0.61521 -39.34356,-0.76512 -27.61682,-0.19258 -39.11188,-0.45291 -39.67231,-0.89844 -0.43398,-0.345 -1.49917,-1.60476 -2.36709,-2.79946 -2.95746,-4.07097 -1.95632,-7.23727 5.03243,-15.91611 18.26867,-22.68657 79.53885,-95.25794 91.00029,-107.78513 2.96461,-3.24029 3.14295,-3.34177 5.87239,-3.34177 3.182,0 5.13323,1.13454 7.27221,4.22842 1.21508,1.75755 1.28738,2.26419 0.97594,6.83926 -0.18499,2.7176 -1.82429,16.75304 -3.6429,31.18987 -1.81861,14.43683 -3.47048,27.79435 -3.67083,29.68339 l -0.36426,3.43462 38.34044,0.19856 c 42.27689,0.21895 40.7044,0.0848 43.77466,3.73363 1.7131,2.03589 2.47061,5.17455 1.67194,6.92745 -0.92248,2.02462 -24.90173,31.54045 -59.12585,72.77745 -26.50212,31.93268 -37.32882,44.51212 -39.6085,46.02074 -2.6066,1.72496 -5.80507,2.16018 -8.13534,1.10698 z m 31.94375,-55.89987 c 25.42512,-30.20312 45.81978,-55.04904 45.81978,-55.82024 0,-0.83985 -16.26063,-1.28165 -33.41772,-0.90793 -18.75443,0.4085 -31.97038,-0.15668 -35.19504,-1.50512 -1.45513,-0.60849 -2.41369,-1.56119 -3.2807,-3.26069 -1.1199,-2.19518 -1.19534,-2.92701 -0.88002,-8.5358 0.18969,-3.37413 1.10618,-12.27528 2.03664,-19.78034 2.33084,-18.80047 2.4911,-20.6076 1.82748,-20.6076 -1.28561,0 -61.92882,72.62419 -60.80122,72.81341 0.42563,0.0714 16.0571,0.36409 34.7366,0.65038 l 33.96273,0.52052 1.30356,1.57746 c 2.99565,3.62512 3.1409,4.05008 3.03245,8.87233 -0.0571,2.5408 -1.11339,12.54852 -2.34723,22.23938 -2.36702,18.59105 -2.55587,20.87083 -1.72895,20.87083 0.28292,0 7.00216,-7.70697 14.93164,-17.12659 z"
       id="path344"
       transform="translate(14.636866,15.199763)" />
    <path
       style="fill:#ffffff;stroke:none;stroke-width:0.556962"
       d="m 178.78481,547.57989 c -5.68219,-1.4805 -10.97484,-5.34541 -14.53425,-10.61351 -1.9164,-2.83636 -5.21097,-12.48459 -21.12931,-61.87777 -6.16589,-19.13218 -8.24996,-24.08028 -11.40728,-27.08377 -3.39202,-3.22675 -5.93715,-3.73106 -23.52018,-4.66044 -17.030808,-0.90021 -20.173567,-1.42743 -27.60383,-4.63079 -17.205281,-7.4176 -30.140982,-22.90868 -33.80733,-40.48576 -0.936318,-4.48887 -1.829694,-26.61541 -1.881485,-46.59939 -0.01257,-4.84982 -0.256365,-8.87043 -0.548833,-9.05118 -0.28942,-0.17888 -0.399763,-0.80879 -0.245207,-1.39982 0.366348,-1.40091 -1.675414,-1.96508 -11.246346,-3.10752 -12.455813,-1.4868 -16.826282,-3.28515 -22.835443,-9.39622 -4.2741568,-4.34665 -7.0224072,-8.96604 -8.3370571,-14.01332 -1.17054638,-4.49403 -1.09231839,-10.525 0.1845968,-14.23144 2.0025284,-5.81263 10.9780913,-22.62153 24.1513493,-45.22922 9.903948,-16.99695 15.937715,-30.34955 17.104412,-37.8517 0.711727,-4.57659 1.545872,-16.14828 2.277973,-31.6012 1.167726,-24.64797 2.664975,-35.89253 6.662196,-50.0341 C 63.719168,94.495442 88.571549,59.269103 123.57021,34.364987 155.12852,11.90893 189.9063,0.82889662 228.91139,0.80379729 c 29.88026,-0.0192275 53.9067,5.32007031 79.36709,17.63742371 19.45954,9.414233 34.38811,19.749384 48.90183,33.855092 31.0559,30.182834 50.63275,70.301017 55.276,113.275217 0.92425,8.55411 0.39874,36.67445 -0.835,44.68163 -1.39794,9.07287 -4.76626,22.15897 -10.32192,40.10127 -2.79813,9.03671 -5.7997,19.18734 -6.67014,22.55696 -5.55125,21.48978 -8.08114,50.18243 -6.80978,77.23291 1.61195,34.29698 6.17916,61.69115 16.50744,99.01159 2.84409,10.27693 3.07062,13.21678 1.42815,18.53447 -2.20948,7.15346 -7.34691,13.21196 -13.61233,16.05284 -5.54229,2.51299 -184.36343,59.28573 -197.42951,62.68058 -6.58245,1.71026 -12.22867,2.12008 -15.92841,1.15611 z m 40.99678,-26.85609 c 33.09646,-10.34489 98.19174,-30.83837 132.77537,-41.80071 31.04683,-9.84125 34.16521,-11.07408 35.80424,-14.155 1.15795,-2.17661 0.4415,-6.70787 -3.46896,-21.93987 -7.39,-28.78543 -10.57123,-46.94371 -13.22926,-75.51176 -0.43667,-4.6933 -0.70459,-16.93796 -0.71293,-32.58228 -0.0111,-20.91163 0.15383,-26.40106 0.99584,-33.13924 2.13139,-17.05655 5.28022,-30.81702 11.85734,-51.81687 8.86071,-28.29105 9.88844,-32.45246 10.86174,-43.9806 0.8832,-10.46086 0.3469,-44.12368 -0.81633,-51.24051 C 392.24868,144.76824 386.8943,128.05365 381.472,115.92128 376.09461,103.88937 368.82817,91.983933 360.19081,81.053837 355.04109,74.53717 339.75501,59.190972 333.34177,54.099225 313.68125,38.489873 291.53645,27.794728 266.26049,21.701365 254.9777,18.981384 248.01715,18.50517 223.96862,18.807916 c -23.10267,0.290839 -22.56281,0.218822 -40.42056,5.392097 -30.43878,8.817918 -55.75962,24.765258 -77.86544,49.040493 -16.085782,17.664413 -26.889169,36.056254 -34.608624,58.918254 -5.861563,17.35963 -7.06425,25.50278 -8.981864,60.81426 -0.623397,11.47946 -1.397663,22.63263 -1.720584,24.78481 -2.116177,14.10375 -5.353442,21.23528 -25.541904,56.26749 -12.099825,20.99633 -14.772312,26.03781 -15.914271,30.02129 -1.157601,4.03805 -0.794318,7.3946 1.161537,10.73202 2.416811,4.12397 4.914949,4.88993 20.350239,6.23959 4.611771,0.40326 6.552208,0.84521 8.911393,2.02964 4.020711,2.0186 7.32751,4.76938 10.019246,8.33456 l 2.216157,2.93528 0.543729,24.1576 c 0.589489,26.19062 1.210568,36.07831 2.555609,40.6858 2.887714,9.89197 13.784309,21.07787 23.702182,24.33148 5.195286,1.70434 9.216596,2.1954 25.252345,3.08366 12.97412,0.71867 14.87764,0.949 18.21072,2.20357 7.13807,2.68676 14.11549,8.30358 17.50963,14.09526 2.24698,3.83418 5.13569,11.7955 11.3853,31.37809 10.03208,31.43457 14.00097,43.44304 14.35841,43.44344 0.19314,2.1e-4 0.38832,0.56413 0.43374,1.25316 0.17603,2.67091 2.66056,8.00262 4.67152,10.02492 1.70535,1.71498 2.47299,2.08861 4.29109,2.08861 1.31352,0 15.66999,-4.20585 35.29337,-10.33949 z"
       id="path348"
       transform="translate(14.636866,15.199763)" />
    <path
       style="fill:#a0a0a0;stroke:none;stroke-width:0.556962"
       d="m 176.77536,546.46087 c -5.50819,-2.26586 -9.45491,-5.42427 -12.40582,-9.92794 -1.47364,-2.24906 -5.25925,-13.14927 -15.41009,-44.3715 -11.68614,-35.94456 -13.14019,-39.78241 -16.47949,-43.49653 -3.50754,-3.90121 -5.12917,-4.27375 -24.38678,-5.60232 -8.906949,-0.61448 -16.821028,-1.2651 -17.586851,-1.44583 -17.187358,-4.05608 -32.099994,-16.18557 -39.568069,-32.18348 -4.232894,-9.06758 -4.792594,-13.59058 -5.556374,-44.90162 -0.287687,-11.79368 -0.68643,-22.15095 -0.886096,-23.01618 -0.472727,-2.04849 -1.188814,-2.28098 -11.406345,-3.70328 -13.311056,-1.85291 -18.5138,-4.18024 -24.0958378,-10.77868 -5.9474161,-7.03034 -7.787163,-11.97055 -7.4967165,-20.13066 0.1740944,-4.8912 0.431066,-6.10622 2.0649567,-9.76361 2.5190172,-5.6387 9.2222326,-18.0723 18.6167396,-34.53165 13.424556,-23.52007 18.773103,-34.63351 20.64928,-42.906 0.998664,-4.40334 1.749852,-13.26277 2.855398,-33.67627 1.37081,-25.31154 2.512392,-34.28241 6.102465,-47.95491 C 62.735473,96.369207 88.833293,59.171462 124.86783,33.905042 153.54907,13.794548 184.51476,3.1663958 219.5187,1.4186394 c 30.5738,-1.52655803 58.63519,3.5358282 83.91798,15.1391356 23.08645,10.595322 41.3522,23.31332 57.49509,40.032435 26.13752,27.070521 43.00357,60.45525 49.91512,98.8022 1.22685,6.80687 1.3033,8.54141 1.27649,28.96202 -0.0234,17.82822 -0.19781,22.69194 -0.97303,27.13567 -1.40163,8.03437 -5.21975,22.50006 -11.14,42.2061 -7.45033,24.799 -9.18466,32.7682 -11.27264,51.79747 -1.2236,11.15158 -1.67004,37.32244 -0.85984,50.40506 1.93675,31.27327 6.03964,55.55961 14.96065,88.55697 2.78901,10.31609 3.16359,12.32054 3.17447,16.98734 0.0115,4.94188 -0.11996,5.56687 -1.99181,9.46835 -1.10227,2.29747 -3.15431,5.44976 -4.56008,7.00509 -4.59601,5.08499 -3.17316,4.55566 -67.79021,25.21942 -83.63477,26.74539 -135.7167,42.92706 -141.70989,44.02875 -5.30299,0.97481 -9.67196,0.74162 -13.18564,-0.70378 z m 17.99661,-17.86555 c 10.9924,-3.18446 31.58757,-9.5894 92.62044,-28.80427 94.69898,-29.81392 97.2085,-30.65487 100.09622,-33.54258 1.64156,-1.64156 1.68377,-1.81215 1.3946,-5.63563 -0.164,-2.16855 -2.19283,-11.7037 -4.5085,-21.18922 -6.46434,-26.47946 -8.56016,-37.79006 -11.29713,-60.96792 -1.248,-10.56861 -1.44865,-14.91894 -1.70878,-37.04903 -0.18942,-16.11483 -0.0722,-27.95608 0.32804,-33.13924 1.36064,-17.62031 5.00201,-34.34482 13.45803,-61.81173 9.64228,-31.32014 10.01531,-33.57092 9.99703,-60.31967 -0.0185,-27.065 -0.56732,-32.40263 -4.81497,-46.82886 -6.21141,-21.09576 -14.9985,-38.63815 -28.21094,-56.319828 -1.83121,-2.450633 -8.86882,-9.969966 -15.63913,-16.70963 -13.02265,-12.963689 -19.01909,-17.765744 -31.42561,-25.166168 -18.90995,-11.279688 -42.83653,-19.7747 -61.73121,-21.917359 -8.4831,-0.961985 -49.82398,-0.393856 -55.15556,0.757976 -5.67485,1.22599 -20.65878,5.689537 -26.90868,8.015792 -32.93029,12.256893 -62.10027,35.740293 -82.208311,66.1821 -11.253779,17.037237 -20.597541,40.386237 -23.8392,59.571467 -1.279258,7.57108 -1.841249,14.10404 -3.381951,39.31374 -1.553662,25.42185 -2.386532,31.29221 -5.634083,39.71091 -2.682038,6.95271 -9.336769,19.64353 -21.20762,40.4437 -13.292791,23.29172 -14.507882,25.54459 -15.794551,29.28436 -2.383991,6.92919 -0.542069,13.55404 4.470782,16.0801 1.85735,0.93595 6.700839,1.78427 14.481013,2.5363 3.522785,0.34051 7.595187,1.00064 9.049782,1.46695 3.598668,1.15364 8.760879,5.06736 11.814511,8.95714 l 2.52741,3.21946 0.0074,8.07595 c 0.01086,11.89187 1.017486,41.11259 1.661384,48.22816 0.30746,3.39763 1.067663,7.65839 1.689344,9.46835 2.859972,8.32651 11.60671,17.80438 20.198701,21.88709 4.655774,2.21232 9.995809,3.20072 21.279319,3.93867 17.96333,1.1748 22.46094,1.67262 25.5486,2.82787 7.25732,2.7153 14.95355,9.41288 17.98978,15.65545 2.35754,4.84714 5.96791,15.30337 15.54897,45.03238 4.49193,13.93798 8.47567,25.96836 8.85276,26.73418 0.37709,0.76582 0.84125,2.2109 1.03147,3.21129 0.54841,2.8842 3.03073,7.67426 4.94871,9.54945 2.39549,2.34204 4.11276,2.25332 14.47194,-0.7477 z"
       id="path350"
       transform="translate(14.636866,15.199763)" />
    <path
       style="fill:#ffffff;stroke:none;stroke-width:0.556962"
       d="m 177.08722,546.20939 c -6.62077,-2.7709 -11.06352,-6.91481 -13.73852,-12.8144 -0.92139,-2.03209 -6.92483,-19.55385 -13.34099,-38.93725 -6.41615,-19.3834 -11.91696,-35.24255 -12.22402,-35.24255 -0.30706,0 -0.40133,-0.25396 -0.2095,-0.56436 0.42109,-0.68133 -2.00039,-6.13499 -4.03091,-9.07845 -1.63151,-2.36505 -5.84966,-5.12154 -7.10193,-4.641 -0.44591,0.17111 -0.94363,0.0961 -1.10606,-0.16673 -0.36413,-0.58918 -2.99866,-0.87784 -20.69875,-2.26793 -14.50371,-1.13906 -17.669315,-1.75652 -24.50594,-4.78 -8.522393,-3.76901 -18.92983,-12.48386 -24.129671,-20.20539 -5.351542,-7.94681 -8.251276,-15.90204 -9.197723,-25.23336 -0.371124,-3.65903 -1.989895,-44.72686 -1.943256,-49.29992 0.03312,-3.24772 -1.102051,-3.83235 -10.086253,-5.1946 C 22.0304,335.85123 16.99237,334.08636 12.19452,329.8738 9.329638,327.3584 5.4559613,322.12905 3.7312358,318.44862 2.336775,315.47295 2.2278481,314.7096 2.2278481,307.91304 v -7.32746 l 4.5733767,-9.10292 c 2.5153575,-5.0066 9.0968202,-17.12317 14.6254732,-26.9257 11.434293,-20.27348 17.538474,-32.30367 20.046925,-39.50871 2.165041,-6.21867 2.965625,-13.10896 4.495037,-38.68687 1.647596,-27.55446 2.832,-36.41248 6.747343,-50.46265 C 66.554316,86.240134 101.44159,44.063693 148.39706,20.226581 174.51721,6.9665985 204.38466,0.578857 235.59494,1.5776045 c 31.62941,1.0121598 57.81652,8.5271205 85.81822,24.6274005 42.12213,24.219172 73.53493,65.982859 85.77595,114.040095 4.10018,16.09701 4.24439,17.34556 4.52756,39.20065 0.16025,12.36788 0.0257,22.73402 -0.3481,26.83094 -0.73866,8.09451 -3.52035,19.46589 -11.21922,45.86344 -3.06385,10.5052 -5.6268,19.85228 -5.69544,20.77126 -0.0686,0.91899 -0.28675,1.7962 -0.48469,1.94937 -0.64461,0.49879 -3.1792,12.8947 -4.32753,21.16456 -1.64266,11.82998 -2.23646,22.74512 -2.24167,41.2066 -0.01,35.2834 3.81497,63.26847 14.00802,102.4896 3.7245,14.33124 3.98311,15.71054 4.02043,21.44304 0.0385,5.91431 -0.0262,6.25626 -1.86906,9.86936 -2.67974,5.25407 -6.18563,9.05804 -10.22967,11.09947 -4.34591,2.1938 -23.9952,8.71552 -79.20316,26.288 -67.5894,21.51343 -112.61713,35.5018 -122.05507,37.91778 -4.54617,1.16375 -12.0488,1.09877 -14.98429,-0.12978 z m 20.42297,-18.13497 c 18.76838,-5.48322 159.1623,-49.69765 175.0974,-55.14366 11.05946,-3.77969 12.52219,-4.39948 14.69226,-6.22547 1.61027,-1.35496 1.73812,-1.72277 1.73812,-5.00041 0,-1.94583 -0.25472,-3.6953 -0.56604,-3.88771 -0.31133,-0.19241 -0.43213,-0.56652 -0.26845,-0.83137 0.33035,-0.53452 -1.3069,-8.36472 -4.65798,-22.27694 -5.1317,-21.3046 -7.5947,-34.79527 -10.16846,-55.6962 -1.04901,-8.51885 -1.23268,-13.46642 -1.45784,-39.27012 -0.21773,-24.9504 -0.11591,-30.7735 0.65733,-37.59494 1.75656,-15.4962 5.12821,-29.91729 13.41145,-57.36279 9.18597,-30.43659 9.3418,-31.54763 9.0225,-64.32911 -0.26737,-27.4497 -0.50667,-29.28512 -6.04445,-46.36075 C 383.25747,116.4927 375.69606,101.47438 364.91693,86.329114 360.47248,80.084422 342.03354,60.98175 333.34177,53.61738 315.71524,38.682758 288.65095,26.0002 262.05063,20.209745 c -5.66366,-1.232887 -6.72637,-1.272418 -33.6962,-1.253448 l -27.8481,0.01959 -7.79747,2.090509 c -35.37492,9.484051 -60.11758,23.637901 -83.5443,47.790882 -18.784316,19.366651 -30.393621,38.653472 -39.013205,64.813612 -5.162169,15.66698 -6.173339,22.36404 -8.325318,55.13924 -1.60483,24.44188 -2.44924,32.16514 -4.245638,38.83201 -1.674546,6.21465 -10.036063,22.74236 -23.60655,46.66166 -14.582806,25.7036 -15.418913,27.44774 -15.707478,32.76625 -0.271798,5.00949 0.744832,8.26658 3.233979,10.36106 2.207565,1.85755 4.221953,2.36054 14.702182,3.67118 4.901265,0.61294 9.977802,1.50839 11.281191,1.98988 3.485868,1.28774 8.651851,5.31012 11.532469,8.97951 l 2.52741,3.21946 0.0022,13.08861 c 0.0028,15.41834 0.862099,37.74742 1.725953,44.83544 0.336009,2.75696 1.054619,6.28939 1.596921,7.84983 2.819966,8.11436 12.566812,18.37411 20.813978,21.90925 3.247846,1.3922 11.11856,3.02736 12.917029,2.68356 0.734906,-0.14048 1.407587,-0.089 1.494857,0.11431 0.0873,0.20336 5.92323,0.80646 12.9688,1.34024 7.04557,0.53377 14.01061,1.20247 15.47788,1.486 8.16916,1.57857 17.94517,9.5887 21.73227,17.80668 0.91758,1.99114 7.24298,20.45441 14.05643,41.02948 12.36619,37.34303 13.89042,41.24274 16.83458,43.07098 1.67515,1.04022 7.35566,0.19536 16.34574,-2.4311 z"
       id="path352"
       transform="translate(14.636866,15.199763)" />
  </g>
</svg>
