<?xml version="1.0" encoding="UTF-8" standalone="no"?>
<!-- Created with Inkscape (http://www.inkscape.org/) -->

<svg
   version="1.1"
   id="svg9"
   width="414.07123"
   height="548.90149"
   viewBox="0 0 414.07123 548.90149"
   sodipodi:docname="Capture-removebg-preview.svg"
   inkscape:version="1.2.2 (732a01da63, 2022-12-09)"
   xmlns:inkscape="http://www.inkscape.org/namespaces/inkscape"
   xmlns:sodipodi="http://sodipodi.sourceforge.net/DTD/sodipodi-0.dtd"
   xmlns="http://www.w3.org/2000/svg"
   xmlns:svg="http://www.w3.org/2000/svg">
  <defs
     id="defs13" />
  <sodipodi:namedview
     id="namedview11"
     pagecolor="#ffffff"
     bordercolor="#000000"
     borderopacity="0.25"
     inkscape:showpageshadow="2"
     inkscape:pageopacity="0.0"
     inkscape:pagecheckerboard="true"
     inkscape:deskcolor="#d1d1d1"
     showgrid="false"
     inkscape:zoom="1.7954545"
     inkscape:cx="146.20253"
     inkscape:cy="275.41772"
     inkscape:window-width="1494"
     inkscape:window-height="1368"
     inkscape:window-x="1648"
     inkscape:window-y="0"
     inkscape:window-maximized="0"
     inkscape:current-layer="g15" />
  <g
     inkscape:groupmode="layer"
     inkscape:label="Image"
     id="g15"
     transform="translate(-14.636866,-15.199763)">
    <path
       style="fill:#000000"
       d="m 192.3353,563.2935 c -4.95075,-1.50595 -8.85231,-4.08274 -12.32554,-8.14043 -3.68616,-4.30645 -3.32007,-3.28635 -18.81387,-52.42523 -10.1744,-32.26828 -10.97031,-34.48463 -13.43612,-37.41509 -4.38904,-5.21607 -7.76009,-6.08491 -23.60903,-6.08491 -15.99119,0 -22.55009,-1.21491 -32.385195,-5.99873 -15.66201,-7.61805 -26.31487,-20.88774 -30.87665,-38.46137 -1.20163,-4.62911 -1.55055,-11.77522 -1.56244,-32 -0.008,-14.32194 -0.34592,-26.53416 -0.75,-27.13825 -0.40408,-0.60408 -5.17557,-1.38304 -10.60331,-1.731 -7.28175,-0.46681 -11.23638,-1.25883 -15.08648,-3.02147 -13.59257,-6.22288 -21.18568,-22.05336 -17.18267,-35.82324 1.27712,-4.39314 19.53322,-37.57903 28.78536,-52.32594 4.25997,-6.78993 10.87993,-21.48512 12.40351,-27.53367 1.12921,-4.48291 1.88414,-14.13458 2.46123,-31.46633 1.02662,-30.83267 2.89327,-42.62414 10.13155,-64 C 89.809955,79.706685 142.21915,32.824372 204.06062,19.344644 c 29.93085,-6.524095 64.28386,-5.296071 93.0965,3.327938 77.62675,23.234722 131.38277,95.381228 131.55051,176.555258 0.0453,21.92157 -3.28375,40.00075 -12.37784,67.22086 -6.286,18.81502 -7.52282,23.67687 -10.51192,41.3216 -7.55992,44.6264 -2.04516,104.87392 14.58272,159.31288 2.34755,7.68576 2.40483,10.22037 0.38474,17.02275 -1.69679,5.71372 -6.94268,12.29441 -11.80509,14.80886 -1.65651,0.85662 -12.94032,4.6999 -25.07515,8.54063 -12.13483,3.84074 -28.36332,8.99186 -36.06332,11.44694 -7.7,2.45508 -16.7,5.276 -20,6.26872 -3.3,0.99272 -19.05,5.95318 -35,11.02325 -15.95,5.07007 -38,12.04998 -49,15.51093 -11,3.46094 -24.44284,7.69436 -29.87299,9.4076 -9.67886,3.05373 -16.50216,3.74152 -21.63348,2.18064 z m 28.67079,-23.67706 c 11.45963,-3.63627 29.38568,-9.29606 39.83568,-12.57731 22.55928,-7.08352 31.59566,-9.93597 66,-20.83376 27.30421,-8.64878 42.5085,-13.43825 61.37012,-19.33207 6.25357,-1.9541 12.21607,-4.31847 13.25,-5.25417 2.5834,-2.33794 2.3673,-6.15588 -1.01263,-17.89129 -10.42699,-36.20332 -16.10388,-76.24407 -16.09177,-113.5 0.0112,-34.42271 4.0426,-58.0064 15.95349,-93.32777 7.95758,-23.59793 9.5235,-33.21876 9.46836,-58.17223 -0.0521,-23.5833 -1.31512,-31.79118 -7.99754,-51.97318 C 385.48232,97.527543 343.85345,56.492063 294.84177,41.339 c -20.84718,-6.445374 -27.98905,-7.491611 -51,-7.47116 -18.92707,0.01682 -22.13517,0.27432 -32.5,2.608619 -35.64326,8.027343 -62.32506,22.853333 -87.09037,48.392564 -17.89008,18.449167 -29.997145,38.475407 -38.304175,63.358817 -5.82101,17.43664 -7.68132,30.15661 -8.62879,59 -1.12923,34.37614 -2.35905,38.82038 -18.63392,67.33757 -4.75929,8.33933 -12.40839,21.5136 -16.998,29.27614 -9.00606,15.2322 -10.06226,19.1643 -6.82782,25.41902 2.36441,4.57226 6.16424,5.96727 16.2541,5.96727 7.71432,0 9.56692,0.35839 14.2153,2.75 3.37498,1.73644 6.48176,4.35169 8.42932,7.09571 l 3.08435,4.34572 0.55095,30.15428 c 0.59097,32.34498 0.77191,33.55719 6.45696,43.25799 2.5994,4.43554 9.90425,11.05062 15.19251,13.75793 6.089025,3.11727 15.445655,4.60841 29.012075,4.62359 10.91662,0.0122 14.18032,0.37689 18.78231,2.09872 11.125,4.1624 18.49177,12.14206 22.24552,24.09631 22.95293,73.09625 23.37604,74.34919 25.85718,76.56975 1.38271,1.2375 3.12538,2.25 3.87259,2.25 0.74721,0 10.73461,-2.97513 22.19423,-6.6114 z m -3.20977,-177.84315 c -1.6252,-1.6252 -2.44866,-3.56801 -2.43712,-5.75 0.01,-1.8125 1.76587,-17.47045 3.90284,-34.79545 2.13698,-17.325 3.67758,-31.8375 3.42355,-32.25 -0.25402,-0.4125 -18.00678,-0.75 -39.45059,-0.75 h -38.98873 l -2.45225,-2.64602 c -3.90473,-4.21328 -3.30595,-8.22487 2.24866,-15.06507 30.10946,-37.07812 93.71917,-112.15928 95.84234,-113.12666 3.81825,-1.73971 9.03196,0.11562 10.99558,3.91284 1.68768,3.26362 1.6365,3.88538 -3.60321,43.77181 -1.61459,12.29079 -2.93562,23.42829 -2.93562,24.75 v 2.4031 l 36.75,0.006 c 22.66328,0.003 38.20446,0.40947 40.54445,1.05927 4.8161,1.33741 7.71258,6.448 6.07849,10.72498 -0.95702,2.50485 -88.1043,108.01928 -96.18767,116.46017 -4.50773,4.7071 -9.81806,5.20812 -13.73072,1.29545 z m 50.52591,-73.58818 c 16.51075,-19.8235 30.01977,-36.361 30.02006,-36.75 2.8e-4,-0.389 -14.28722,-0.5702 -31.75,-0.40267 -35.61537,0.34167 -38.15632,0.021 -40.59727,-5.12289 -1.44911,-3.05378 -1.38171,-4.8917 0.88908,-24.243 1.35139,-11.51629 2.6468,-21.75191 2.87869,-22.74581 0.23188,-0.99391 0.009,-1.66891 -0.49607,-1.5 -0.50472,0.1689 -14.41548,16.5071 -30.9128,36.3071 l -29.99513,36 34.57914,0.5 34.57915,0.5 2.41234,2.80576 c 3.03694,3.53221 3.03254,4.98084 -0.0876,28.89113 -2.63908,20.22308 -2.78543,21.80311 -2.01959,21.80311 0.26426,0 13.98926,-16.21923 30.5,-36.04273 z"
       id="path187" />
  </g>
</svg>
