<?xml version="1.0" encoding="UTF-8" standalone="no"?>
<!-- Created with Inkscape (http://www.inkscape.org/) -->

<svg
   version="1.1"
   id="svg9"
   width="414.07123"
   height="548.90149"
   viewBox="0 0 414.07123 548.90149"
   sodipodi:docname="dark-logo.svg"
   inkscape:version="1.2.2 (732a01da63, 2022-12-09)"
   xmlns:inkscape="http://www.inkscape.org/namespaces/inkscape"
   xmlns:sodipodi="http://sodipodi.sourceforge.net/DTD/sodipodi-0.dtd"
   xmlns="http://www.w3.org/2000/svg"
   xmlns:svg="http://www.w3.org/2000/svg">
  <defs
     id="defs13" />
  <sodipodi:namedview
     id="namedview11"
     pagecolor="#ffffff"
     bordercolor="#000000"
     borderopacity="0.25"
     inkscape:showpageshadow="2"
     inkscape:pageopacity="0.0"
     inkscape:pagecheckerboard="true"
     inkscape:deskcolor="#d1d1d1"
     showgrid="false"
     inkscape:zoom="1.4142136"
     inkscape:cx="444.06306"
     inkscape:cy="360.97801"
     inkscape:window-width="2028"
     inkscape:window-height="1368"
     inkscape:window-x="1546"
     inkscape:window-y="23"
     inkscape:window-maximized="0"
     inkscape:current-layer="g15" />
  <g
     inkscape:groupmode="layer"
     inkscape:label="Image"
     id="g15"
     transform="translate(-19.649522,-14.085839)">
    <path
       style="fill:#000000"
       d="m 197.34796,562.17957 c -4.95075,-1.50595 -8.85231,-4.08274 -12.32554,-8.14043 -3.68616,-4.30645 -3.32007,-3.28635 -18.81387,-52.42523 -10.1744,-32.26828 -10.97031,-34.48463 -13.43612,-37.41509 -4.38904,-5.21607 -7.76009,-6.08491 -23.60903,-6.08491 -15.99119,0 -22.55009,-1.21491 -32.385196,-5.99873 -15.66201,-7.61805 -26.314873,-20.88774 -30.876653,-38.46137 -1.20163,-4.62911 -1.55055,-11.77522 -1.56244,-32 -0.008,-14.32194 -0.34592,-26.53416 -0.75,-27.13825 -0.40408,-0.60408 -5.17557,-1.38304 -10.60331,-1.731 -7.28175,-0.46681 -11.23638,-1.25883 -15.08648,-3.02147 -13.59257,-6.22288 -21.18568,-22.05336 -17.18267,-35.82324 1.27712,-4.39314 19.53322,-37.57903 28.78536,-52.32594 4.25997,-6.78993 10.87993,-21.48512 12.40351,-27.53367 1.12921,-4.48291 1.88414,-14.13458 2.46123,-31.46633 1.02662,-30.83267 2.89327,-42.62414 10.13155,-64 C 94.822614,78.592761 130.34668,50.149635 191.93114,31.558508 c 31.21654,-9.423655 83.27615,-6.344506 113.94575,2.835313 82.62974,24.732184 127.67566,82.546069 127.8434,163.720089 0.0453,21.92157 -3.28375,40.00075 -12.37784,67.22086 -6.286,18.81502 -7.52282,23.67687 -10.51192,41.3216 -7.55992,44.6264 -2.04516,104.87392 14.58272,159.31288 2.34755,7.68576 2.40483,10.22037 0.38474,17.02275 -1.69679,5.71372 -6.94268,12.29441 -11.80509,14.80886 -1.65651,0.85662 -12.94032,4.6999 -25.07515,8.54063 -12.13483,3.84074 -28.36332,8.99186 -36.06332,11.44694 -7.7,2.45508 -16.7,5.276 -20,6.26872 -3.3,0.99272 -19.05,5.95318 -35,11.02325 -15.95,5.07007 -38,12.04998 -49,15.51093 -11,3.46094 -24.44284,7.69436 -29.87299,9.4076 -9.67886,3.05373 -16.50216,3.74152 -21.63348,2.18064 z m 28.90142,-67.51571 c 9.44665,-2.99754 24.22385,-7.66314 32.83823,-10.36801 18.59657,-5.83925 26.04563,-8.19064 54.40659,-17.17416 22.50801,-7.12955 35.04155,-11.07771 50.58998,-15.93624 5.15509,-1.61084 10.07022,-3.5599 10.92254,-4.33123 2.1296,-1.92726 1.13699,-13.28276 -1.40829,-22.12022 -7.85215,-27.26324 -12.12717,-57.41628 -12.11806,-85.4722 0.008,-25.92234 3.04432,-43.68225 12.01393,-70.28132 5.99251,-17.77065 8.41429,-34.7553 8.36885,-55.3255 -0.0429,-19.44072 -1.08412,-26.20682 -6.59272,-42.8437 -13.43635,-40.57998 -34.7092,-71.692726 -82.15518,-86.361721 -20.18122,-6.239475 -21.15754,-7.257568 -49.3708,-7.232493 -23.20608,0.02062 -21.42805,0.265556 -31.46178,2.525287 -34.50464,7.770908 -45.37718,19.000926 -65.79228,40.053997 -14.74754,15.20842 -24.72791,31.7169 -31.57575,52.22934 -4.7985,14.37376 -6.33203,24.85937 -7.11307,48.63619 -0.93087,28.33771 -1.94467,32.00128 -15.360731,55.50921 -3.923284,6.87446 -10.228761,17.73457 -14.01217,24.13356 -7.424076,12.55654 -8.294746,15.79794 -5.628461,20.95397 1.949083,3.76911 5.081445,4.91907 13.398942,4.91907 6.35924,0 7.886416,0.29544 11.718273,2.26694 2.782137,1.43142 5.343187,3.58729 6.948647,5.8493 l 2.54256,3.58236 0.45417,24.85745 c 0.48717,26.66333 0.63632,27.6626 5.32275,35.65939 2.14279,3.6564 8.16449,9.10949 12.52382,11.34124 5.01945,2.56969 12.73251,3.79891 23.91588,3.81142 8.99904,0.01 11.68944,0.31068 15.48306,1.73006 9.1708,3.43125 15.24354,10.00921 18.33792,19.86361 18.92107,60.25633 19.26986,61.28918 21.31517,63.11968 1.13982,1.02012 2.57638,1.85477 3.19234,1.85477 0.61595,0 8.84899,-2.45253 18.29564,-5.45005 z m -5.59766,-121.00455 c -1.83195,-1.83195 -2.76016,-4.02191 -2.74715,-6.48147 0.0113,-2.04307 1.99051,-19.6929 4.39932,-39.22184 2.40883,-19.52895 4.14542,-35.88761 3.85907,-36.35258 -0.28633,-0.46498 -20.29745,-0.84541 -44.46917,-0.84541 h -43.94855 l -2.76421,-2.98262 c -4.40146,-4.74926 -3.7265,-9.27117 2.53472,-16.98153 33.93973,-41.79489 105.64135,-126.42726 108.03461,-127.5177 4.30398,-1.96102 10.18093,0.13033 12.39435,4.4106 1.90237,3.67879 1.84468,4.37965 -4.06158,49.3401 -1.81999,13.85432 -3.30907,26.40864 -3.30907,27.89849 v 2.7088 l 41.42503,0.007 c 25.54632,0.003 43.06452,0.46155 45.70218,1.19402 5.42877,1.50754 8.69371,7.26826 6.85175,12.08932 -1.07877,2.8235 -99.3122,121.7606 -108.42387,131.27527 -5.08117,5.3059 -11.06704,5.87066 -15.47743,1.46025 z m 52.68317,-86.58813 c 16.51075,-19.8235 30.01977,-36.361 30.02006,-36.75 2.8e-4,-0.389 -14.28722,-0.5702 -31.75,-0.40267 -35.61537,0.34167 -38.15632,0.021 -40.59727,-5.12289 -1.44911,-3.05378 -1.38171,-4.8917 0.88908,-24.243 1.35139,-11.51629 2.6468,-21.75191 2.87869,-22.74581 0.23188,-0.99391 0.009,-1.66891 -0.49607,-1.5 -0.50472,0.1689 -14.41548,16.5071 -30.9128,36.3071 l -29.99513,36 34.57914,0.5 34.57915,0.5 2.41234,2.80576 c 3.03694,3.53221 3.03254,4.98084 -0.0876,28.89113 -2.63908,20.22308 -2.78543,21.80311 -2.01959,21.80311 0.26426,0 13.98926,-16.21923 30.5,-36.04273 z"
       id="path438"
       sodipodi:nodetypes="ssssssscssssssssssssssssssssssssssssssssssssssssssssscsssssssssccssscssssssccsssccsssssscscccscss" />
  </g>
</svg>
