<?xml version="1.0" encoding="UTF-8" standalone="no"?>
<!-- Created with Inkscape (http://www.inkscape.org/) -->

<svg
   version="1.1"
   id="svg9"
   width="449.71988"
   height="582.22882"
   viewBox="0 0 449.71988 582.22884"
   sodipodi:docname="dark-logo.svg"
   inkscape:version="1.2.2 (732a01da63, 2022-12-09)"
   xmlns:inkscape="http://www.inkscape.org/namespaces/inkscape"
   xmlns:sodipodi="http://sodipodi.sourceforge.net/DTD/sodipodi-0.dtd"
   xmlns="http://www.w3.org/2000/svg"
   xmlns:svg="http://www.w3.org/2000/svg">
  <defs
     id="defs13" />
  <sodipodi:namedview
     id="namedview11"
     pagecolor="#ffffff"
     bordercolor="#000000"
     borderopacity="0.25"
     inkscape:showpageshadow="2"
     inkscape:pageopacity="0.0"
     inkscape:pagecheckerboard="true"
     inkscape:deskcolor="#d1d1d1"
     showgrid="false"
     inkscape:zoom="1.4142136"
     inkscape:cx="217.43533"
     inkscape:cy="329.8653"
     inkscape:window-width="2028"
     inkscape:window-height="1368"
     inkscape:window-x="1396"
     inkscape:window-y="0"
     inkscape:window-maximized="0"
     inkscape:current-layer="g15"
     inkscape:lockguides="true" />
  <g
     inkscape:groupmode="layer"
     inkscape:label="Image"
     id="g15"
     transform="translate(12.877396,20.842378)">
    <ellipse
       style="fill:#cccccc;stroke-width:0.725547"
       id="path217"
       ry="52.325897"
       rx="224.85994"
       cy="509.06055"
       cx="211.98254" />
    <path
       style="fill:#000000;fill-opacity:1"
       d="m 169.91746,515.51051 c -4.95075,-1.50595 -8.85231,-4.08274 -12.32554,-8.14043 -3.68616,-4.30645 -3.32007,-3.28635 -18.81387,-52.42523 -10.17441,-32.26828 -10.97032,-34.48463 -13.43613,-37.41509 -4.38904,-5.21607 -7.76009,-6.08491 -23.60903,-6.08491 -15.99119,0 -22.55009,-1.21491 -32.3852,-5.99873 -15.66201,-7.61805 -26.31487,-20.88774 -30.87665,-38.46137 -1.20163,-4.62911 -1.55055,-11.77522 -1.56244,-32 -0.008,-14.32194 -0.34592,-26.53416 -0.75,-27.13825 -0.40408,-0.60408 -5.17557,-1.38304 -10.60331,-1.731 -7.28175,-0.46681 -11.23638,-1.25883 -15.08648,-3.02147 -13.5925696,-6.22288 -21.18568,-22.05336 -17.1826696,-35.82324 1.27712,-4.39314 19.5332196,-37.57903 28.7853596,-52.32594 4.25997,-6.78993 10.87993,-21.48512 12.40351,-27.53367 1.12921,-4.48291 1.88414,-14.13458 2.46123,-31.46633 1.02662,-30.83266 2.89327,-42.62413 10.13155,-63.999986 20.32431,-60.02115 55.84838,-88.4642755 117.43285,-107.055403 31.21654,-9.423655 83.27615,-6.344506 113.94575,2.835313 82.62974,24.732184 127.67566,82.546069 127.8434,163.720076 0.0453,21.92157 -3.28375,40.00075 -12.37784,67.22086 -6.286,18.81502 -7.52282,23.67687 -10.51192,41.3216 -7.55992,44.6264 -2.04516,104.87392 14.58272,159.31288 2.34755,7.68576 2.40483,10.22037 0.38474,17.02275 -1.69679,5.71372 -6.94268,12.29441 -11.80509,14.80886 -1.65651,0.85662 -12.94032,4.6999 -25.07515,8.54063 -12.13483,3.84074 -28.36332,8.99186 -36.06332,11.44694 -7.7,2.45508 -16.7,5.276 -20,6.26872 -3.3,0.99272 -19.05,5.95318 -35,11.02325 -15.95,5.07007 -38,12.04998 -49,15.51093 -11,3.46094 -24.44284,7.69436 -29.87299,9.4076 -9.67886,3.05373 -16.50216,3.74152 -21.63348,2.18064 z M 198.8803,436.3041 c 8.91054,-2.82743 22.84911,-7.22825 30.97461,-9.77961 17.54119,-5.50787 24.56751,-7.72581 51.31894,-16.1995 21.23065,-6.72494 33.0529,-10.44904 47.71893,-15.03184 4.86253,-1.51942 9.49872,-3.35787 10.30267,-4.08543 2.00874,-1.81788 1.07246,-12.52894 -1.32837,-20.86486 -7.40653,-25.71601 -11.43893,-54.15783 -11.43034,-80.62153 0.008,-24.45121 2.87155,-41.20322 11.33212,-66.29276 5.65243,-16.76214 7.93677,-32.78288 7.89391,-52.1857 -0.0405,-18.33743 -1.0226,-24.71953 -6.21858,-40.41225 -12.67381,-38.277001 -32.7394,-67.624054 -77.49275,-81.460562 -19.03591,-5.885376 -19.95682,-6.845691 -46.56894,-6.822039 -21.8891,0.01945 -20.21198,0.250485 -29.67628,2.381973 -32.54645,7.329898 -42.80196,17.922597 -62.05848,37.780876 -13.9106,14.345321 -23.32457,29.916922 -29.783782,49.265252 -4.526178,13.55802 -5.972678,23.44855 -6.709393,45.876 -0.878042,26.72951 -1.834307,30.18516 -14.488987,52.35899 -3.700638,6.48432 -9.648273,16.7281 -13.216959,22.76394 -7.002753,11.84394 -7.824011,14.90139 -5.309046,19.7648 1.838476,3.55521 4.79307,4.63991 12.63854,4.63991 5.998344,0 7.438845,0.27867 11.053241,2.13829 2.62425,1.35018 5.039964,3.3837 6.554305,5.51734 l 2.398266,3.37906 0.428395,23.44675 c 0.459518,25.15015 0.600208,26.09271 5.020676,33.63567 2.021184,3.44889 7.701144,8.59251 11.813074,10.69761 4.73459,2.42385 12.00992,3.58331 22.55862,3.59511 8.48833,0.009 11.02605,0.29305 14.60438,1.63188 8.65035,3.23652 14.37845,9.44117 17.29722,18.73632 17.84727,56.8367 18.17627,57.81093 20.10551,59.53755 1.07513,0.96223 2.43016,1.74951 3.01117,1.74951 0.58099,0 8.34679,-2.31335 17.25733,-5.14075 z m -1.34456,-135.31369 c -1.41846,-1.41846 -2.13716,-3.11413 -2.12709,-5.01854 0.009,-1.58193 1.54123,-15.24801 3.40635,-30.36907 1.86513,-15.12106 3.20975,-27.7874 2.98804,-28.14742 -0.22171,-0.36003 -15.71611,-0.6546 -34.43203,-0.6546 H 133.3421 l -2.1403,-2.30941 c -3.40802,-3.67729 -2.88539,-7.17857 1.9626,-13.14862 26.2792,-32.36136 81.79702,-97.89132 83.6501,-98.73564 3.33253,-1.51839 7.88299,0.10092 9.59682,3.41508 1.47298,2.84845 1.42832,3.39112 -3.14484,38.20353 -1.4092,10.72726 -2.56218,20.44794 -2.56218,21.60151 v 2.0974 l 32.07497,0.005 c 19.78026,0.002 33.34442,0.35737 35.38673,0.92452 4.20344,1.16727 6.73145,5.62773 5.30524,9.36063 -0.83528,2.18621 -76.89641,94.27798 -83.95149,101.64509 -3.93429,4.10831 -8.56909,4.5456 -11.98401,1.13066 z m 48.36865,-60.58829 c 16.51075,-19.8235 30.01977,-36.361 30.02006,-36.75 2.8e-4,-0.389 -14.28722,-0.5702 -31.75,-0.40267 -35.61537,0.34167 -38.15632,0.021 -40.59727,-5.12289 -1.44911,-3.05378 -1.38171,-4.8917 0.88908,-24.243 1.35139,-11.51629 2.6468,-21.75191 2.87869,-22.74581 0.23188,-0.99391 0.009,-1.66891 -0.49607,-1.5 -0.50472,0.1689 -14.41548,16.5071 -30.9128,36.3071 l -29.99513,36 34.57914,0.5 34.57915,0.5 2.41234,2.80576 c 3.03694,3.53221 3.03254,4.98084 -0.0876,28.89113 -2.63908,20.22308 -2.78543,21.80311 -2.01959,21.80311 0.26426,0 13.98926,-16.21923 30.5,-36.04273 z"
       id="path438"
       sodipodi:nodetypes="ssssssscssssssssssssssssssssssssssssssssssssssssssssscsssssssssccssscssssssccsssccsssssscscccscss" />
    <path
       style="fill:#000000"
       d="m 212.68966,142.49928 c -1.17851,0.94281 -2.46835,1.76124 -3.53554,2.82843 -0.37267,0.37268 -0.33443,1.04153 -0.7071,1.41421 -0.5021,0.5021 -1.9957,1.2886 -2.12132,1.41422 -0.16667,0.16666 0,0.4714 0,0.7071 -0.23571,0.23571 -0.42976,0.52221 -0.70711,0.70711 -1.24432,0.82954 -5.74712,3.09422 -7.07107,3.53553 -0.44721,0.14907 -0.99257,-0.21081 -1.41421,0 -0.21082,0.10541 0,0.47141 0,0.70711 -0.47141,0.2357 -0.94281,0.4714 -1.41422,0.70711 -0.66666,0.33333 -1.59427,0.18006 -2.12132,0.7071 -0.16666,0.16667 0.16667,0.54044 0,0.70711 -0.16666,0.16667 -0.54044,-0.16667 -0.7071,0 -0.16667,0.16667 0.16666,0.54044 0,0.70711 -0.16667,0.16666 -0.47141,0 -0.70711,0 -0.2357,0.2357 -0.52221,0.42975 -0.70711,0.7071 -0.73235,1.09854 -0.68185,1.72989 -1.41421,2.82843 -0.62587,0.93881 -2.47651,1.77267 -2.82843,2.82843 -0.14907,0.44721 0.21082,0.99257 0,1.41421 -0.0438,0.0876 -1.82605,0.82369 -2.12132,1.41422 -0.33569,0.67137 -3.01746,4.60436 -3.53553,4.94974 -0.43853,0.29236 -1.12186,0.26858 -1.41421,0.70711 -0.26149,0.39223 0.21081,0.99258 0,1.41421 -0.0251,0.0501 -2.67959,1.26537 -2.82843,1.41422 -0.52921,0.52921 -0.28458,2.26361 -1.41421,2.82842 -0.42855,0.21428 -1.82502,0.4108 -2.12132,0.70711 -0.40984,0.40984 -1.00438,2.41859 -1.41422,2.82843 -0.16666,0.16666 -0.49629,-0.10541 -0.70711,0 -2.9428,1.4714 0.75593,-0.0488 -0.7071,1.41421 -0.38391,0.38391 -1.35974,0.65264 -2.12132,1.41421 -0.60093,0.60093 -0.81329,1.5204 -1.41422,2.12132 -0.16666,0.16667 -0.54044,-0.16666 -0.7071,0 -0.29631,0.29631 -0.49283,1.69278 -0.70711,2.12132 -1.4714,2.94281 0.0488,-0.75592 -1.41421,0.70711 -0.29631,0.29631 -0.49283,1.69277 -0.70711,2.12132 -0.2357,0.47141 -1.17851,0.2357 -1.41421,0.70711 -0.21082,0.42164 0.14907,0.967 0,1.41421 -0.21082,0.63246 -1.11607,0.81793 -1.41422,1.41422 -0.10541,0.21081 0.16667,0.54044 0,0.7071 -0.16666,0.16667 -0.54044,-0.16666 -0.7071,0 -0.16667,0.16667 0.16666,0.54044 0,0.70711 -0.16667,0.16667 -0.54044,-0.16667 -0.70711,0 -0.43298,0.43298 -0.93866,2.8222 -1.41421,3.53553 -1.67061,2.50592 -4.00251,3.76238 -4.94975,5.65686 -0.51183,1.02367 -2.61357,3.07455 -3.53553,3.53553 -0.21082,0.10541 -0.54044,-0.16667 -0.70711,0 -0.35355,0.35355 -0.35355,1.06066 -0.70711,1.41421 -0.16666,0.16667 -0.54044,-0.16666 -0.7071,0 -0.52675,0.52675 -1.01468,2.42889 -1.41422,2.82843 -0.16667,0.16667 -0.6017,-0.21082 -0.70711,0 -0.21081,0.42164 0.21082,0.99258 0,1.41422 -0.1054,0.21081 -0.54044,-0.16667 -0.7071,0 -0.16667,0.16666 0.16666,0.54044 0,0.7071 -0.64112,0.64112 -0.71173,0.009 -1.41422,1.41422 -0.54149,1.08298 -1.26007,0.55296 -2.12132,1.41421 -0.0965,0.0965 -0.29772,5.35912 0,5.65685 0.16667,0.16667 0.49629,-0.10541 0.70711,0 0.59629,0.29815 0.76745,1.25253 1.41421,1.41422 2.47556,0.61889 7.84211,-1.0287 9.8995,0 0.76012,0.38006 1.33227,1.09859 2.12132,1.41421 0.65653,0.26261 1.48886,-0.31623 2.12132,0 2.76793,1.38397 7.34273,0.70711 10.6066,0.70711 2.98856,0 5.71242,-0.21718 8.48528,0.7071 2.49859,0.83287 7.72031,-1.08959 9.8995,0 1.63973,0.81987 3.74981,0.77854 5.65685,1.41422 3.21299,1.07099 6.84912,-0.81808 9.8995,0.7071 0.21081,0.10541 0.54044,-0.16666 0.7071,0 0.16667,0.16667 -0.16666,0.54044 0,0.70711 1.71742,1.71742 1.03833,-0.21027 2.12132,1.41421 0.82915,1.24372 0.83926,2.09814 1.41422,3.53554 0.2357,0.4714 0.4714,0.94281 0.7071,1.41421 0.23571,0.2357 0.55804,0.40897 0.70711,0.70711 0.44574,0.89148 0.23289,2.5871 0.70711,3.53553 0.14907,0.29814 0.60169,0.39088 0.7071,0.70711 0.77655,2.32963 0,12.9168 0,16.26345 0,0.9379 0.67192,5.69204 0,6.36397 -0.16666,0.16666 -0.60169,-0.21082 -0.7071,0 -0.81234,1.62466 0,10.56907 0,12.72792 0,0.4315 -0.27552,2.55291 0,2.82842 0.5397,0.53971 3.56394,0 4.24264,0 2.92826,0 4.43196,-0.53451 7.07106,-1.41421 0.59634,-0.19878 1.56292,0.2792 2.12133,0 1.82557,-0.91279 -0.46663,-1.25867 2.12132,-2.12132 1.30617,-0.43539 0.33523,1.07898 2.12132,-0.70711 0.33333,-0.33333 -0.21082,-0.99257 0,-1.41421 0.73824,-1.47648 1.38308,-1.35195 2.12132,-2.82843 0.70186,-1.40372 1.20796,-2.8726 2.12132,-4.24264 0.3698,-0.5547 1.11607,-0.81793 1.41421,-1.41421 0.10541,-0.21082 -0.16667,-0.54044 0,-0.70711 0.16667,-0.16666 0.54044,0.16667 0.70711,0 0.40983,-0.40984 1.00437,-2.41859 1.41421,-2.82843 0.16667,-0.16666 0.49629,0.10541 0.70711,0 0.90311,-0.45155 0.71027,-1.41737 1.41421,-2.12132 0.54562,-0.54562 2.4123,-1.99618 2.82843,-2.82842 0.48767,-0.97536 -0.85635,-0.63249 0.7071,-1.41422 0.42164,-0.21081 0.99258,0.21082 1.41422,0 1.08299,-0.54149 0.55297,-1.26007 1.41421,-2.12132 0.16667,-0.16666 0.49629,0.10541 0.70711,0 2.94281,-1.4714 -0.75592,0.0488 0.7071,-1.41421 0.37268,-0.37268 1.04154,-0.33443 1.41422,-0.70711 0.62467,-0.62467 1.59857,-3.71988 2.12132,-4.24264 0.4046,-0.40459 1.78703,-0.41134 2.12132,-1.41421 0.14907,-0.44721 -0.21082,-0.99258 0,-1.41421 0.10541,-0.21082 0.54044,0.16666 0.70711,0 0.16666,-0.16667 -0.16667,-0.54044 0,-0.70711 0.16666,-0.16667 0.54044,0.16667 0.7071,0 0.16667,-0.16667 -0.10541,-0.49629 0,-0.70711 0.42427,-0.84853 1.69706,-1.27279 2.12132,-2.12132 0.12548,-0.25096 0.57658,-2.05605 0.70711,-2.12132 0.42164,-0.21082 0.99258,0.21082 1.41421,0 0.42164,-0.21082 -0.33333,-1.08088 0,-1.41421 0.16667,-0.16667 0.54044,0.16666 0.70711,0 0.16667,-0.16667 -0.10541,-0.49629 0,-0.70711 0.42426,-0.84853 1.69706,-1.27279 2.12132,-2.12132 0.57814,-1.15628 0.90509,-2.51729 1.41421,-3.53553 1.47141,-2.94281 -0.0488,0.75592 1.41422,-0.70711 1.46303,-1.46303 -2.23571,0.0572 0.7071,-1.41421 0.21082,-0.10541 0.54044,0.16666 0.70711,0 0.23456,-0.23457 1.20546,-2.41091 1.41421,-2.82843 0.23571,-0.4714 1.17852,-0.2357 1.41422,-0.70711 0.21082,-0.42163 -0.26149,-1.02198 0,-1.41421 0.49647,-0.74471 1.74843,-1.04132 2.12132,-1.41421 0.40984,-0.40984 1.00437,-2.41859 1.41421,-2.82843 0.16667,-0.16667 0.54044,0.16667 0.70711,0 0.60092,-0.60093 1.03415,-1.3612 1.41421,-2.12132 0.21428,-0.42855 0.4108,-1.82501 0.70711,-2.12132 0.16667,-0.16667 0.49629,0.10541 0.70711,0 0.87177,-0.43589 3.09964,-2.66376 3.53553,-3.53554 0.10541,-0.21081 -0.16667,-0.54044 0,-0.7071 0.16667,-0.16667 0.54044,0.16666 0.70711,0 0.67076,-0.67077 2.1959,-5.09891 2.82842,-6.36396 0.55664,-1.11327 1.8248,-2.34944 2.12132,-3.53554 0.10862,-0.43447 0.1981,-4.04454 0,-4.24264 -0.72506,-0.72506 -6.40383,0 -7.07106,0 -11.54941,0 -23.09883,0 -34.64824,0 -3.12303,0 -11.69608,0.81535 -14.14213,0 -0.5,-0.16666 -0.8974,-0.60374 -1.41421,-0.7071 -1.15563,-0.23113 -2.48145,0.52704 -3.53554,0 -0.21082,-0.10541 0.16667,-0.54044 0,-0.70711 -0.56059,-0.56059 -2.81607,0.35973 -3.53553,0 -0.47141,-0.2357 -0.2357,-1.17851 -0.70711,-1.41421 -0.75425,-0.37713 -2.07418,0.37712 -2.82843,0 -0.93611,-0.46806 -1.68009,-2.65309 -2.12132,-3.53554 -0.29814,-0.59628 -1.11607,-0.81793 -1.41421,-1.41421 -0.21082,-0.42164 0.21082,-0.99258 0,-1.41422 -0.51046,-1.02091 -0.90376,-1.80751 -1.41421,-2.82842 -1.22081,-2.44161 0.87104,-6.57925 0,-9.19239 -2.31218,-6.93652 -2.15389,-19.63618 -0.70711,-26.87006 0.19642,-0.98209 -0.29463,-2.65165 0,-3.53553 0.0745,-0.22361 0.54044,0.16667 0.70711,0 0.20642,-0.20642 -0.21529,-2.79255 0,-2.82843 5.77188,-0.96198 4.60459,2.53371 3.53553,-4.94975"
       id="path449" />
    <path
       style="fill:#000000"
       d="m 209.86123,145.32771 c -0.94281,0.2357 -1.9592,0.27249 -2.82843,0.70711 -0.13786,0.0689 -0.55367,1.26078 -0.7071,1.41421 -0.37268,0.37268 -1.04154,0.33443 -1.41422,0.70711 -0.16666,0.16666 0.16667,0.54044 0,0.7071 -0.16666,0.16667 -0.54044,-0.16666 -0.7071,0 -0.86163,0.86163 -1.2597,2.67391 -2.12132,3.53554 -0.16667,0.16666 -0.54044,-0.16667 -0.70711,0 -0.52705,0.52704 -0.25989,1.52503 -0.70711,2.12132 -1.83078,2.44104 -2.12132,3.86396 -2.12132,7.07106 0,1.12226 0.26111,3.38687 0.70711,3.53554 1.0035,0.3345 4.0875,0.15514 4.94975,-0.70711 0.37267,-0.37268 0.33442,-1.04153 0.7071,-1.41421 0.74536,-0.74536 1.98516,-0.78176 2.82843,-1.41422 4.3732,-3.27989 0.42698,-0.14685 1.41421,-2.12132 0.56119,-1.12236 2.3618,-1.65469 2.82843,-2.12132 0.33333,-0.33333 -0.11433,-0.95688 0,-1.41421 1.29116,-5.16462 0.77564,-5.53692 -2.12132,-10.6066 z"
       id="path455" />
  </g>
</svg>
